<?xml version="1.0" standalone="no"?>
<!DOCTYPE svg PUBLIC "-//W3C//DTD SVG 1.1//EN" "http://www.w3.org/Graphics/SVG/1.1/DTD/svg11.dtd" >
<svg xmlns="http://www.w3.org/2000/svg" xmlns:xlink="http://www.w3.org/1999/xlink" version="1.1">
<metadata>
Created by FontForge 20150824 at Sun May 22 18:35:26 2016
 By Everything Fonts
(C) GroupD.B.P.'s / pumpCurry
</metadata>
<defs>
<font id="GDDigit13LED" horiz-adv-x="500" >
  <font-face 
    font-family="GDDigit13LED"
    font-weight="400"
    font-stretch="normal"
    units-per-em="1000"
    panose-1="2 0 6 0 0 0 0 0 0 0"
    ascent="780"
    descent="-220"
    x-height="375"
    cap-height="777"
    bbox="4 -4 506.4 777"
    underline-thickness="50"
    underline-position="-150"
    unicode-range="U+0020-FB02"
  />
<missing-glyph 
 />
    <glyph glyph-name=".notdef" 
 />
    <glyph glyph-name=".null" horiz-adv-x="0" 
 />
    <glyph glyph-name="nonmarkingreturn" 
 />
    <glyph glyph-name="space" unicode=" " 
 />
    <glyph glyph-name="exclam" unicode="!" 
d="M379 36q13 -10 -2 -22l-12 -12q-6 -6 -19 -6h-294q-13 0 -18 7q-4 11 5 21l63 64h225zM293 433l28 237h-64l-27 -237h63z" />
    <glyph glyph-name="quotedbl" unicode="&#x22;" 
d="M504 683l-29 -230q-4 -20 -12 -27l-23 -25q-4 -4 -10 -4q-4 0 -8 4l-43 42l29 232l62 61q9 7 15 -2l16 -23q9 -12 3 -28zM170 666l-28 -231l-43 -41q-5 -6 -9 -6q-7 0 -13 6l-25 26q-6 6 -6 17l31 248q5 15 9 20l13 12q6 4 9 4q7 0 11 -4z" />
    <glyph glyph-name="numbersign" unicode="#" 
d="M469 765q2 -12 -2 -18l-70 -70h-223l-49 48q-9 9 0 17l25 23q8 12 19 12h288q4 0 12 -12zM379 36q13 -10 -2 -22l-12 -12q-6 -6 -19 -6h-294q-13 0 -18 7q-4 11 5 21l63 64h225zM361 338h-219l-34 32q-7 7 2 17l48 42h216l31 -28q12 -9 -1 -20z" />
    <glyph glyph-name="dollar" unicode="$" 
d="M469 765q2 -12 -2 -18l-70 -70h-223l-49 48q-9 9 0 17l25 23q8 12 19 12h288q4 0 12 -12zM170 666l-28 -231l-43 -41q-5 -6 -9 -6q-7 0 -13 6l-25 26q-6 6 -6 17l31 248q5 15 9 20l13 12q6 4 9 4q7 0 11 -4zM463 340l-33 -266q-3 -9 -11 -19l-14 -13q-4 -4 -9 -5
q-5 1 -9 5l-50 49l30 237l52 53q8 10 15 0l22 -21q7 -10 7 -20zM379 36q13 -10 -2 -22l-12 -12q-6 -6 -19 -6h-294q-13 0 -18 7q-4 11 5 21l63 64h225zM293 433h-63l27 237h64zM249 94h-63l29 237h62zM361 338h-219l-34 32q-7 7 2 17l48 42h216l31 -28q12 -9 -1 -20z" />
    <glyph glyph-name="percent" unicode="%" 
d="M170 666l-28 -231l-43 -41q-5 -6 -9 -6q-7 0 -13 6l-25 26q-6 6 -6 17l31 248q5 15 9 20l13 12q6 4 9 4q7 0 11 -4zM463 340l-33 -266q-3 -9 -11 -19l-14 -13q-4 -4 -9 -5q-5 1 -9 5l-50 49l30 237l52 53q8 10 15 0l22 -21q7 -10 7 -20zM401 670l-13 -107l-90 -130
l13 112zM209 331l-12 -104l-92 -133l13 103z" />
    <glyph glyph-name="ampersand" unicode="&#x26;" 
d="M469 765q2 -12 -2 -18l-70 -70h-223l-49 48q-9 9 0 17l25 23q8 12 19 12h288q4 0 12 -12zM170 666l-28 -231l-43 -41q-5 -6 -9 -6q-7 0 -13 6l-25 26q-6 6 -6 17l31 248q5 15 9 20l13 12q6 4 9 4q7 0 11 -4zM463 340l-33 -266q-3 -9 -11 -19l-14 -13q-4 -4 -9 -5
q-5 1 -9 5l-50 49l30 237l52 53q8 10 15 0l22 -21q7 -10 7 -20zM130 336l-31 -238l-65 -63q-10 -10 -16 0l-8 14q-6 6 -6 22l27 251q3 14 15 23l25 25q5 5 12 5q4 0 10 -5zM379 36q13 -10 -2 -22l-12 -12q-6 -6 -19 -6h-294q-13 0 -18 7q-4 11 5 21l63 64h225zM251 338
l11 91h-104l-48 -42q-9 -10 -2 -17l34 -32h109z" />
    <glyph glyph-name="quotesingle" unicode="'" 
d="M170 666l-28 -231l-43 -41q-5 -6 -9 -6q-7 0 -13 6l-25 26q-6 6 -6 17l31 248q5 15 9 20l13 12q6 4 9 4q7 0 11 -4z" />
    <glyph glyph-name="parenleft" unicode="(" 
d="M469 765q2 -12 -2 -18l-70 -70h-223l-49 48q-9 9 0 17l25 23q8 12 19 12h288q4 0 12 -12zM170 666l-28 -231l-43 -41q-5 -6 -9 -6q-7 0 -13 6l-25 26q-6 6 -6 17l31 248q5 15 9 20l13 12q6 4 9 4q7 0 11 -4z" />
    <glyph glyph-name="parenright" unicode=")" 
d="M463 340l-33 -266q-3 -9 -11 -19l-14 -13q-4 -4 -9 -5q-5 1 -9 5l-50 49l30 237l52 53q8 10 15 0l22 -21q7 -10 7 -20zM379 36q13 -10 -2 -22l-12 -12q-6 -6 -19 -6h-294q-13 0 -18 7q-4 11 5 21l63 64h225z" />
    <glyph glyph-name="asterisk" unicode="*" 
d="M293 433h-63l27 237h64zM249 94h-63l29 237h62zM401 670l-13 -107l-90 -130l13 112zM209 331l-12 -104l-92 -133l13 103zM282 331l62 -133l-14 -104l-60 133zM177 670l59 -125l-14 -112l-58 130zM361 338h-219l-34 32q-7 7 2 17l48 42h216l31 -28q12 -9 -1 -20z" />
    <glyph glyph-name="plus" unicode="+" 
d="M293 433h-63l27 237h64zM249 94h-63l29 237h62zM361 338h-219l-34 32q-7 7 2 17l48 42h216l31 -28q12 -9 -1 -20z" />
    <glyph glyph-name="comma" unicode="," 
d="M209 331l-12 -104l-92 -133l13 103z" />
    <glyph glyph-name="hyphen" unicode="-" 
d="M361 338h-219l-34 32q-7 7 2 17l48 42h216l31 -28q12 -9 -1 -20z" />
    <glyph glyph-name="period" unicode="." 
d="M130 336l-31 -238l-65 -63q-10 -10 -16 0l-8 14q-6 6 -6 22l27 251q3 14 15 23l25 25q5 5 12 5q4 0 10 -5z" />
    <glyph glyph-name="slash" unicode="/" 
d="M401 670l-13 -107l-90 -130l13 112zM209 331l-12 -104l-92 -133l13 103z" />
    <glyph glyph-name="zero" unicode="0" 
d="M469 765q2 -12 -2 -18l-70 -70h-223l-49 48q-9 9 0 17l25 23q8 12 19 12h288q4 0 12 -12zM504 683l-29 -230q-4 -20 -12 -27l-23 -25q-4 -4 -10 -4q-4 0 -8 4l-43 42l29 232l62 61q9 7 15 -2l16 -23q9 -12 3 -28zM170 666l-28 -231l-43 -41q-5 -6 -9 -6q-7 0 -13 6
l-25 26q-6 6 -6 17l31 248q5 15 9 20l13 12q6 4 9 4q7 0 11 -4zM463 340l-33 -266q-3 -9 -11 -19l-14 -13q-4 -4 -9 -5q-5 1 -9 5l-50 49l30 237l52 53q8 10 15 0l22 -21q7 -10 7 -20zM130 336l-31 -238l-65 -63q-10 -10 -16 0l-8 14q-6 6 -6 22l27 251q3 14 15 23l25 25
q5 5 12 5q4 0 10 -5zM379 36q13 -10 -2 -22l-12 -12q-6 -6 -19 -6h-294q-13 0 -18 7q-4 11 5 21l63 64h225zM401 670l-13 -107l-90 -130l13 112zM209 331l-12 -104l-92 -133l13 103z" />
    <glyph glyph-name="one" unicode="1" 
d="M504 683l-29 -230q-4 -20 -12 -27l-23 -25q-4 -4 -10 -4q-4 0 -8 4l-43 42l29 232l62 61q9 7 15 -2l16 -23q9 -12 3 -28zM463 340l-33 -266q-3 -9 -11 -19l-14 -13q-4 -4 -9 -5q-5 1 -9 5l-50 49l30 237l52 53q8 10 15 0l22 -21q7 -10 7 -20z" />
    <glyph glyph-name="two" unicode="2" 
d="M469 765q2 -12 -2 -18l-70 -70h-223l-49 48q-9 9 0 17l25 23q8 12 19 12h288q4 0 12 -12zM504 683l-29 -230q-4 -20 -12 -27l-23 -25q-4 -4 -10 -4q-4 0 -8 4l-43 42l29 232l62 61q9 7 15 -2l16 -23q9 -12 3 -28zM130 336l-31 -238l-65 -63q-10 -10 -16 0l-8 14
q-6 6 -6 22l27 251q3 14 15 23l25 25q5 5 12 5q4 0 10 -5zM379 36q13 -10 -2 -22l-12 -12q-6 -6 -19 -6h-294q-13 0 -18 7q-4 11 5 21l63 64h225zM361 338h-219l-34 32q-7 7 2 17l48 42h216l31 -28q12 -9 -1 -20z" />
    <glyph glyph-name="three" unicode="3" 
d="M469 765q2 -12 -2 -18l-70 -70h-223l-49 48q-9 9 0 17l25 23q8 12 19 12h288q4 0 12 -12zM504 683l-29 -230q-4 -20 -12 -27l-23 -25q-4 -4 -10 -4q-4 0 -8 4l-43 42l29 232l62 61q9 7 15 -2l16 -23q9 -12 3 -28zM463 340l-33 -266q-3 -9 -11 -19l-14 -13q-4 -4 -9 -5
q-5 1 -9 5l-50 49l30 237l52 53q8 10 15 0l22 -21q7 -10 7 -20zM379 36q13 -10 -2 -22l-12 -12q-6 -6 -19 -6h-294q-13 0 -18 7q-4 11 5 21l63 64h225zM361 338h-219l-34 32q-7 7 2 17l48 42h216l31 -28q12 -9 -1 -20z" />
    <glyph glyph-name="four" unicode="4" 
d="M504 683l-29 -230q-4 -20 -12 -27l-23 -25q-4 -4 -10 -4q-4 0 -8 4l-43 42l29 232l62 61q9 7 15 -2l16 -23q9 -12 3 -28zM170 666l-28 -231l-43 -41q-5 -6 -9 -6q-7 0 -13 6l-25 26q-6 6 -6 17l31 248q5 15 9 20l13 12q6 4 9 4q7 0 11 -4zM463 340l-33 -266
q-3 -9 -11 -19l-14 -13q-4 -4 -9 -5q-5 1 -9 5l-50 49l30 237l52 53q8 10 15 0l22 -21q7 -10 7 -20zM361 338h-219l-34 32q-7 7 2 17l48 42h216l31 -28q12 -9 -1 -20z" />
    <glyph glyph-name="five" unicode="5" 
d="M469 765q2 -12 -2 -18l-70 -70h-223l-49 48q-9 9 0 17l25 23q8 12 19 12h288q4 0 12 -12zM170 666l-28 -231l-43 -41q-5 -6 -9 -6q-7 0 -13 6l-25 26q-6 6 -6 17l31 248q5 15 9 20l13 12q6 4 9 4q7 0 11 -4zM463 340l-33 -266q-3 -9 -11 -19l-14 -13q-4 -4 -9 -5
q-5 1 -9 5l-50 49l30 237l52 53q8 10 15 0l22 -21q7 -10 7 -20zM379 36q13 -10 -2 -22l-12 -12q-6 -6 -19 -6h-294q-13 0 -18 7q-4 11 5 21l63 64h225zM361 338h-219l-34 32q-7 7 2 17l48 42h216l31 -28q12 -9 -1 -20z" />
    <glyph glyph-name="six" unicode="6" 
d="M469 765q2 -12 -2 -18l-70 -70h-223l-49 48q-9 9 0 17l25 23q8 12 19 12h288q4 0 12 -12zM170 666l-28 -231l-43 -41q-5 -6 -9 -6q-7 0 -13 6l-25 26q-6 6 -6 17l31 248q5 15 9 20l13 12q6 4 9 4q7 0 11 -4zM463 340l-33 -266q-3 -9 -11 -19l-14 -13q-4 -4 -9 -5
q-5 1 -9 5l-50 49l30 237l52 53q8 10 15 0l22 -21q7 -10 7 -20zM130 336l-31 -238l-65 -63q-10 -10 -16 0l-8 14q-6 6 -6 22l27 251q3 14 15 23l25 25q5 5 12 5q4 0 10 -5zM379 36q13 -10 -2 -22l-12 -12q-6 -6 -19 -6h-294q-13 0 -18 7q-4 11 5 21l63 64h225zM361 338h-219
l-34 32q-7 7 2 17l48 42h216l31 -28q12 -9 -1 -20z" />
    <glyph glyph-name="seven" unicode="7" 
d="M469 765q2 -12 -2 -18l-70 -70h-223l-49 48q-9 9 0 17l25 23q8 12 19 12h288q4 0 12 -12zM504 683l-29 -230q-4 -20 -12 -27l-23 -25q-4 -4 -10 -4q-4 0 -8 4l-43 42l29 232l62 61q9 7 15 -2l16 -23q9 -12 3 -28zM170 666l-28 -231l-43 -41q-5 -6 -9 -6q-7 0 -13 6
l-25 26q-6 6 -6 17l31 248q5 15 9 20l13 12q6 4 9 4q7 0 11 -4zM463 340l-33 -266q-3 -9 -11 -19l-14 -13q-4 -4 -9 -5q-5 1 -9 5l-50 49l30 237l52 53q8 10 15 0l22 -21q7 -10 7 -20z" />
    <glyph glyph-name="eight" unicode="8" 
d="M469 765q2 -12 -2 -18l-70 -70h-223l-49 48q-9 9 0 17l25 23q8 12 19 12h288q4 0 12 -12zM504 683l-29 -230q-4 -20 -12 -27l-23 -25q-4 -4 -10 -4q-4 0 -8 4l-43 42l29 232l62 61q9 7 15 -2l16 -23q9 -12 3 -28zM170 666l-28 -231l-43 -41q-5 -6 -9 -6q-7 0 -13 6
l-25 26q-6 6 -6 17l31 248q5 15 9 20l13 12q6 4 9 4q7 0 11 -4zM463 340l-33 -266q-3 -9 -11 -19l-14 -13q-4 -4 -9 -5q-5 1 -9 5l-50 49l30 237l52 53q8 10 15 0l22 -21q7 -10 7 -20zM130 336l-31 -238l-65 -63q-10 -10 -16 0l-8 14q-6 6 -6 22l27 251q3 14 15 23l25 25
q5 5 12 5q4 0 10 -5zM379 36q13 -10 -2 -22l-12 -12q-6 -6 -19 -6h-294q-13 0 -18 7q-4 11 5 21l63 64h225zM361 338h-219l-34 32q-7 7 2 17l48 42h216l31 -28q12 -9 -1 -20z" />
    <glyph glyph-name="nine" unicode="9" 
d="M469 765q2 -12 -2 -18l-70 -70h-223l-49 48q-9 9 0 17l25 23q8 12 19 12h288q4 0 12 -12zM504 683l-29 -230q-4 -20 -12 -27l-23 -25q-4 -4 -10 -4q-4 0 -8 4l-43 42l29 232l62 61q9 7 15 -2l16 -23q9 -12 3 -28zM170 666l-28 -231l-43 -41q-5 -6 -9 -6q-7 0 -13 6
l-25 26q-6 6 -6 17l31 248q5 15 9 20l13 12q6 4 9 4q7 0 11 -4zM463 340l-33 -266q-3 -9 -11 -19l-14 -13q-4 -4 -9 -5q-5 1 -9 5l-50 49l30 237l52 53q8 10 15 0l22 -21q7 -10 7 -20zM379 36q13 -10 -2 -22l-12 -12q-6 -6 -19 -6h-294q-13 0 -18 7q-4 11 5 21l63 64h225z
M361 338h-219l-34 32q-7 7 2 17l48 42h216l31 -28q12 -9 -1 -20z" />
    <glyph glyph-name="colon" unicode=":" 
d="M130 336l-31 -238l-65 -63q-10 -10 -16 0l-8 14q-6 6 -6 22l27 251q3 14 15 23l25 25q5 5 12 5q4 0 10 -5zM293 433l28 237h-64l-27 -237h63z" />
    <glyph glyph-name="semicolon" unicode=";" 
d="M293 433l28 237h-64l-27 -237h63zM209 331l-12 -104l-92 -133l13 103z" />
    <glyph glyph-name="less" unicode="&#x3c;" 
d="M401 670l-13 -107l-90 -130l13 112zM282 331l-12 -104l60 -133l14 104z" />
    <glyph glyph-name="equal" unicode="=" 
d="M379 36q13 -10 -2 -22l-12 -12q-6 -6 -19 -6h-294q-13 0 -18 7q-4 11 5 21l63 64h225zM361 338h-219l-34 32q-7 7 2 17l48 42h216l31 -28q12 -9 -1 -20z" />
    <glyph glyph-name="greater" unicode="&#x3e;" 
d="M209 331l-12 -104l-92 -133l13 103zM177 670l-13 -107l58 -130l14 112z" />
    <glyph glyph-name="question" unicode="?" 
d="M469 765q2 -12 -2 -18l-70 -70h-223l-49 48q-9 9 0 17l25 23q8 12 19 12h288q4 0 12 -12zM504 683l-29 -230q-4 -20 -12 -27l-23 -25q-4 -4 -10 -4q-4 0 -8 4l-43 42l29 232l62 61q9 7 15 -2l16 -23q9 -12 3 -28zM379 36q13 -10 -2 -22l-12 -12q-6 -6 -19 -6h-294
q-13 0 -18 7q-4 11 5 21l63 64h225zM361 338h-110l11 91h112l31 -28q12 -9 -1 -20z" />
    <glyph glyph-name="at" unicode="@" 
d="M469 765q2 -12 -2 -18l-70 -70h-223l-49 48q-9 9 0 17l25 23q8 12 19 12h288q4 0 12 -12zM504 683l-29 -230q-4 -20 -12 -27l-23 -25q-4 -4 -10 -4q-4 0 -8 4l-43 42l29 232l62 61q9 7 15 -2l16 -23q9 -12 3 -28zM170 666l-28 -231l-43 -41q-5 -6 -9 -6q-7 0 -13 6
l-25 26q-6 6 -6 17l31 248q5 15 9 20l13 12q6 4 9 4q7 0 11 -4zM463 340l-33 -266q-3 -9 -11 -19l-14 -13q-4 -4 -9 -5q-5 1 -9 5l-50 49l30 237l52 53q8 10 15 0l22 -21q7 -10 7 -20zM130 336l-31 -238l-65 -63q-10 -10 -16 0l-8 14q-6 6 -6 22l27 251q3 14 15 23l25 25
q5 5 12 5q4 0 10 -5zM379 36q13 -10 -2 -22l-12 -12q-6 -6 -19 -6h-294q-13 0 -18 7q-4 11 5 21l63 64h225zM293 433l28 237h-64l-27 -237h63zM249 94l28 237h-62l-29 -237h63zM401 670l-13 -107l-90 -130l13 112zM209 331l-12 -104l-92 -133l13 103zM282 331l-12 -104
l60 -133l14 104zM177 670l-13 -107l58 -130l14 112zM251 338l11 91h-104l-48 -42q-9 -10 -2 -17l34 -32h109zM361 338h-110l11 91h112l31 -28q12 -9 -1 -20z" />
    <glyph glyph-name="A" unicode="A" 
d="M469 765q2 -12 -2 -18l-70 -70h-223l-49 48q-9 9 0 17l25 23q8 12 19 12h288q4 0 12 -12zM504 683l-29 -230q-4 -20 -12 -27l-23 -25q-4 -4 -10 -4q-4 0 -8 4l-43 42l29 232l62 61q9 7 15 -2l16 -23q9 -12 3 -28zM170 666l-28 -231l-43 -41q-5 -6 -9 -6q-7 0 -13 6
l-25 26q-6 6 -6 17l31 248q5 15 9 20l13 12q6 4 9 4q7 0 11 -4zM463 340l-33 -266q-3 -9 -11 -19l-14 -13q-4 -4 -9 -5q-5 1 -9 5l-50 49l30 237l52 53q8 10 15 0l22 -21q7 -10 7 -20zM130 336l-31 -238l-65 -63q-10 -10 -16 0l-8 14q-6 6 -6 22l27 251q3 14 15 23l25 25
q5 5 12 5q4 0 10 -5zM361 338h-219l-34 32q-7 7 2 17l48 42h216l31 -28q12 -9 -1 -20z" />
    <glyph glyph-name="B" unicode="B" 
d="M469 765q2 -12 -2 -18l-70 -70h-223l-49 48q-9 9 0 17l25 23q8 12 19 12h288q4 0 12 -12zM504 683l-29 -230q-4 -20 -12 -27l-23 -25q-4 -4 -10 -4q-4 0 -8 4l-43 42l29 232l62 61q9 7 15 -2l16 -23q9 -12 3 -28zM463 340l-33 -266q-3 -9 -11 -19l-14 -13q-4 -4 -9 -5
q-5 1 -9 5l-50 49l30 237l52 53q8 10 15 0l22 -21q7 -10 7 -20zM379 36q13 -10 -2 -22l-12 -12q-6 -6 -19 -6h-294q-13 0 -18 7q-4 11 5 21l63 64h225zM293 433l28 237h-64l-27 -237h63zM249 94l28 237h-62l-29 -237h63zM361 338h-110l11 91h112l31 -28q12 -9 -1 -20z" />
    <glyph glyph-name="C" unicode="C" 
d="M469 765q2 -12 -2 -18l-70 -70h-223l-49 48q-9 9 0 17l25 23q8 12 19 12h288q4 0 12 -12zM170 666l-28 -231l-43 -41q-5 -6 -9 -6q-7 0 -13 6l-25 26q-6 6 -6 17l31 248q5 15 9 20l13 12q6 4 9 4q7 0 11 -4zM130 336l-31 -238l-65 -63q-10 -10 -16 0l-8 14q-6 6 -6 22
l27 251q3 14 15 23l25 25q5 5 12 5q4 0 10 -5zM379 36q13 -10 -2 -22l-12 -12q-6 -6 -19 -6h-294q-13 0 -18 7q-4 11 5 21l63 64h225z" />
    <glyph glyph-name="D" unicode="D" 
d="M469 765q2 -12 -2 -18l-70 -70h-223l-49 48q-9 9 0 17l25 23q8 12 19 12h288q4 0 12 -12zM504 683l-29 -230q-4 -20 -12 -27l-23 -25q-4 -4 -10 -4q-4 0 -8 4l-43 42l29 232l62 61q9 7 15 -2l16 -23q9 -12 3 -28zM463 340l-33 -266q-3 -9 -11 -19l-14 -13q-4 -4 -9 -5
q-5 1 -9 5l-50 49l30 237l52 53q8 10 15 0l22 -21q7 -10 7 -20zM379 36q13 -10 -2 -22l-12 -12q-6 -6 -19 -6h-294q-13 0 -18 7q-4 11 5 21l63 64h225zM293 433l28 237h-64l-27 -237h63zM249 94l28 237h-62l-29 -237h63z" />
    <glyph glyph-name="E" unicode="E" 
d="M469 765q2 -12 -2 -18l-70 -70h-223l-49 48q-9 9 0 17l25 23q8 12 19 12h288q4 0 12 -12zM170 666l-28 -231l-43 -41q-5 -6 -9 -6q-7 0 -13 6l-25 26q-6 6 -6 17l31 248q5 15 9 20l13 12q6 4 9 4q7 0 11 -4zM130 336l-31 -238l-65 -63q-10 -10 -16 0l-8 14q-6 6 -6 22
l27 251q3 14 15 23l25 25q5 5 12 5q4 0 10 -5zM379 36q13 -10 -2 -22l-12 -12q-6 -6 -19 -6h-294q-13 0 -18 7q-4 11 5 21l63 64h225zM361 338h-219l-34 32q-7 7 2 17l48 42h216l31 -28q12 -9 -1 -20z" />
    <glyph glyph-name="F" unicode="F" 
d="M469 765q2 -12 -2 -18l-70 -70h-223l-49 48q-9 9 0 17l25 23q8 12 19 12h288q4 0 12 -12zM170 666l-28 -231l-43 -41q-5 -6 -9 -6q-7 0 -13 6l-25 26q-6 6 -6 17l31 248q5 15 9 20l13 12q6 4 9 4q7 0 11 -4zM130 336l-31 -238l-65 -63q-10 -10 -16 0l-8 14q-6 6 -6 22
l27 251q3 14 15 23l25 25q5 5 12 5q4 0 10 -5zM361 338h-219l-34 32q-7 7 2 17l48 42h216l31 -28q12 -9 -1 -20z" />
    <glyph glyph-name="G" unicode="G" 
d="M469 765q2 -12 -2 -18l-70 -70h-223l-49 48q-9 9 0 17l25 23q8 12 19 12h288q4 0 12 -12zM170 666l-28 -231l-43 -41q-5 -6 -9 -6q-7 0 -13 6l-25 26q-6 6 -6 17l31 248q5 15 9 20l13 12q6 4 9 4q7 0 11 -4zM463 340l-33 -266q-3 -9 -11 -19l-14 -13q-4 -4 -9 -5
q-5 1 -9 5l-50 49l30 237l52 53q8 10 15 0l22 -21q7 -10 7 -20zM130 336l-31 -238l-65 -63q-10 -10 -16 0l-8 14q-6 6 -6 22l27 251q3 14 15 23l25 25q5 5 12 5q4 0 10 -5zM379 36q13 -10 -2 -22l-12 -12q-6 -6 -19 -6h-294q-13 0 -18 7q-4 11 5 21l63 64h225zM361 338h-110
l11 91h112l31 -28q12 -9 -1 -20z" />
    <glyph glyph-name="H" unicode="H" 
d="M504 683l-29 -230q-4 -20 -12 -27l-23 -25q-4 -4 -10 -4q-4 0 -8 4l-43 42l29 232l62 61q9 7 15 -2l16 -23q9 -12 3 -28zM170 666l-28 -231l-43 -41q-5 -6 -9 -6q-7 0 -13 6l-25 26q-6 6 -6 17l31 248q5 15 9 20l13 12q6 4 9 4q7 0 11 -4zM463 340l-33 -266
q-3 -9 -11 -19l-14 -13q-4 -4 -9 -5q-5 1 -9 5l-50 49l30 237l52 53q8 10 15 0l22 -21q7 -10 7 -20zM130 336l-31 -238l-65 -63q-10 -10 -16 0l-8 14q-6 6 -6 22l27 251q3 14 15 23l25 25q5 5 12 5q4 0 10 -5zM361 338h-219l-34 32q-7 7 2 17l48 42h216l31 -28q12 -9 -1 -20
z" />
    <glyph glyph-name="I" unicode="I" 
d="M469 765q2 -12 -2 -18l-70 -70h-223l-49 48q-9 9 0 17l25 23q8 12 19 12h288q4 0 12 -12zM379 36q13 -10 -2 -22l-12 -12q-6 -6 -19 -6h-294q-13 0 -18 7q-4 11 5 21l63 64h225zM293 433l28 237h-64l-27 -237h63zM249 94l28 237h-62l-29 -237h63z" />
    <glyph glyph-name="J" unicode="J" 
d="M504 683l-29 -230q-4 -20 -12 -27l-23 -25q-4 -4 -10 -4q-4 0 -8 4l-43 42l29 232l62 61q9 7 15 -2l16 -23q9 -12 3 -28zM463 340l-33 -266q-3 -9 -11 -19l-14 -13q-4 -4 -9 -5q-5 1 -9 5l-50 49l30 237l52 53q8 10 15 0l22 -21q7 -10 7 -20zM130 336l-31 -238l-65 -63
q-10 -10 -16 0l-8 14q-6 6 -6 22l27 251q3 14 15 23l25 25q5 5 12 5q4 0 10 -5zM379 36q13 -10 -2 -22l-12 -12q-6 -6 -19 -6h-294q-13 0 -18 7q-4 11 5 21l63 64h225z" />
    <glyph glyph-name="K" unicode="K" 
d="M170 666l-28 -231l-43 -41q-5 -6 -9 -6q-7 0 -13 6l-25 26q-6 6 -6 17l31 248q5 15 9 20l13 12q6 4 9 4q7 0 11 -4zM130 336l-31 -238l-65 -63q-10 -10 -16 0l-8 14q-6 6 -6 22l27 251q3 14 15 23l25 25q5 5 12 5q4 0 10 -5zM401 670l-13 -107l-90 -130l13 112zM282 331
l-12 -104l60 -133l14 104zM251 338l11 91h-104l-48 -42q-9 -10 -2 -17l34 -32h109z" />
    <glyph glyph-name="L" unicode="L" 
d="M170 666l-28 -231l-43 -41q-5 -6 -9 -6q-7 0 -13 6l-25 26q-6 6 -6 17l31 248q5 15 9 20l13 12q6 4 9 4q7 0 11 -4zM130 336l-31 -238l-65 -63q-10 -10 -16 0l-8 14q-6 6 -6 22l27 251q3 14 15 23l25 25q5 5 12 5q4 0 10 -5zM379 36q13 -10 -2 -22l-12 -12q-6 -6 -19 -6
h-294q-13 0 -18 7q-4 11 5 21l63 64h225z" />
    <glyph glyph-name="M" unicode="M" 
d="M504 683l-29 -230q-4 -20 -12 -27l-23 -25q-4 -4 -10 -4q-4 0 -8 4l-43 42l29 232l62 61q9 7 15 -2l16 -23q9 -12 3 -28zM170 666l-28 -231l-43 -41q-5 -6 -9 -6q-7 0 -13 6l-25 26q-6 6 -6 17l31 248q5 15 9 20l13 12q6 4 9 4q7 0 11 -4zM463 340l-33 -266
q-3 -9 -11 -19l-14 -13q-4 -4 -9 -5q-5 1 -9 5l-50 49l30 237l52 53q8 10 15 0l22 -21q7 -10 7 -20zM130 336l-31 -238l-65 -63q-10 -10 -16 0l-8 14q-6 6 -6 22l27 251q3 14 15 23l25 25q5 5 12 5q4 0 10 -5zM401 670l-13 -107l-90 -130l13 112zM177 670l-13 -107l58 -130
l14 112z" />
    <glyph glyph-name="N" unicode="N" 
d="M504 683l-29 -230q-4 -20 -12 -27l-23 -25q-4 -4 -10 -4q-4 0 -8 4l-43 42l29 232l62 61q9 7 15 -2l16 -23q9 -12 3 -28zM170 666l-28 -231l-43 -41q-5 -6 -9 -6q-7 0 -13 6l-25 26q-6 6 -6 17l31 248q5 15 9 20l13 12q6 4 9 4q7 0 11 -4zM463 340l-33 -266
q-3 -9 -11 -19l-14 -13q-4 -4 -9 -5q-5 1 -9 5l-50 49l30 237l52 53q8 10 15 0l22 -21q7 -10 7 -20zM130 336l-31 -238l-65 -63q-10 -10 -16 0l-8 14q-6 6 -6 22l27 251q3 14 15 23l25 25q5 5 12 5q4 0 10 -5zM282 331l-12 -104l60 -133l14 104zM177 670l-13 -107l58 -130
l14 112z" />
    <glyph glyph-name="O" unicode="O" 
d="M469 765q2 -12 -2 -18l-70 -70h-223l-49 48q-9 9 0 17l25 23q8 12 19 12h288q4 0 12 -12zM504 683l-29 -230q-4 -20 -12 -27l-23 -25q-4 -4 -10 -4q-4 0 -8 4l-43 42l29 232l62 61q9 7 15 -2l16 -23q9 -12 3 -28zM170 666l-28 -231l-43 -41q-5 -6 -9 -6q-7 0 -13 6
l-25 26q-6 6 -6 17l31 248q5 15 9 20l13 12q6 4 9 4q7 0 11 -4zM463 340l-33 -266q-3 -9 -11 -19l-14 -13q-4 -4 -9 -5q-5 1 -9 5l-50 49l30 237l52 53q8 10 15 0l22 -21q7 -10 7 -20zM130 336l-31 -238l-65 -63q-10 -10 -16 0l-8 14q-6 6 -6 22l27 251q3 14 15 23l25 25
q5 5 12 5q4 0 10 -5zM379 36q13 -10 -2 -22l-12 -12q-6 -6 -19 -6h-294q-13 0 -18 7q-4 11 5 21l63 64h225z" />
    <glyph glyph-name="P" unicode="P" 
d="M469 765q2 -12 -2 -18l-70 -70h-223l-49 48q-9 9 0 17l25 23q8 12 19 12h288q4 0 12 -12zM504 683l-29 -230q-4 -20 -12 -27l-23 -25q-4 -4 -10 -4q-4 0 -8 4l-43 42l29 232l62 61q9 7 15 -2l16 -23q9 -12 3 -28zM170 666l-28 -231l-43 -41q-5 -6 -9 -6q-7 0 -13 6
l-25 26q-6 6 -6 17l31 248q5 15 9 20l13 12q6 4 9 4q7 0 11 -4zM130 336l-31 -238l-65 -63q-10 -10 -16 0l-8 14q-6 6 -6 22l27 251q3 14 15 23l25 25q5 5 12 5q4 0 10 -5zM361 338h-219l-34 32q-7 7 2 17l48 42h216l31 -28q12 -9 -1 -20z" />
    <glyph glyph-name="Q" unicode="Q" 
d="M469 765q2 -12 -2 -18l-70 -70h-223l-49 48q-9 9 0 17l25 23q8 12 19 12h288q4 0 12 -12zM504 683l-29 -230q-4 -20 -12 -27l-23 -25q-4 -4 -10 -4q-4 0 -8 4l-43 42l29 232l62 61q9 7 15 -2l16 -23q9 -12 3 -28zM170 666l-28 -231l-43 -41q-5 -6 -9 -6q-7 0 -13 6
l-25 26q-6 6 -6 17l31 248q5 15 9 20l13 12q6 4 9 4q7 0 11 -4zM463 340l-33 -266q-3 -9 -11 -19l-14 -13q-4 -4 -9 -5q-5 1 -9 5l-50 49l30 237l52 53q8 10 15 0l22 -21q7 -10 7 -20zM130 336l-31 -238l-65 -63q-10 -10 -16 0l-8 14q-6 6 -6 22l27 251q3 14 15 23l25 25
q5 5 12 5q4 0 10 -5zM379 36q13 -10 -2 -22l-12 -12q-6 -6 -19 -6h-294q-13 0 -18 7q-4 11 5 21l63 64h225zM249 94l28 237h-62l-29 -237h63zM282 331l-12 -104l60 -133l14 104z" />
    <glyph glyph-name="R" unicode="R" 
d="M469 765q2 -12 -2 -18l-70 -70h-223l-49 48q-9 9 0 17l25 23q8 12 19 12h288q4 0 12 -12zM504 683l-29 -230q-4 -20 -12 -27l-23 -25q-4 -4 -10 -4q-4 0 -8 4l-43 42l29 232l62 61q9 7 15 -2l16 -23q9 -12 3 -28zM170 666l-28 -231l-43 -41q-5 -6 -9 -6q-7 0 -13 6
l-25 26q-6 6 -6 17l31 248q5 15 9 20l13 12q6 4 9 4q7 0 11 -4zM130 336l-31 -238l-65 -63q-10 -10 -16 0l-8 14q-6 6 -6 22l27 251q3 14 15 23l25 25q5 5 12 5q4 0 10 -5zM282 331l62 -133l-14 -104l-60 133zM361 338h-219l-34 32q-7 7 2 17l48 42h216l31 -28q12 -9 -1 -20
z" />
    <glyph glyph-name="S" unicode="S" 
d="M469 765q2 -12 -2 -18l-70 -70h-223l-49 48q-9 9 0 17l25 23q8 12 19 12h288q4 0 12 -12zM170 666l-28 -231l-43 -41q-5 -6 -9 -6q-7 0 -13 6l-25 26q-6 6 -6 17l31 248q5 15 9 20l13 12q6 4 9 4q7 0 11 -4zM463 340l-33 -266q-3 -9 -11 -19l-14 -13q-4 -4 -9 -5
q-5 1 -9 5l-50 49l30 237l52 53q8 10 15 0l22 -21q7 -10 7 -20zM379 36q13 -10 -2 -22l-12 -12q-6 -6 -19 -6h-294q-13 0 -18 7q-4 11 5 21l63 64h225zM361 338h-219l-34 32q-7 7 2 17l48 42h216l31 -28q12 -9 -1 -20z" />
    <glyph glyph-name="T" unicode="T" 
d="M469 765q2 -12 -2 -18l-70 -70h-223l-49 48q-9 9 0 17l25 23q8 12 19 12h288q4 0 12 -12zM293 433l28 237h-64l-27 -237h63zM249 94l28 237h-62l-29 -237h63z" />
    <glyph glyph-name="U" unicode="U" 
d="M504 683l-29 -230q-4 -20 -12 -27l-23 -25q-4 -4 -10 -4q-4 0 -8 4l-43 42l29 232l62 61q9 7 15 -2l16 -23q9 -12 3 -28zM170 666l-28 -231l-43 -41q-5 -6 -9 -6q-7 0 -13 6l-25 26q-6 6 -6 17l31 248q5 15 9 20l13 12q6 4 9 4q7 0 11 -4zM463 340l-33 -266
q-3 -9 -11 -19l-14 -13q-4 -4 -9 -5q-5 1 -9 5l-50 49l30 237l52 53q8 10 15 0l22 -21q7 -10 7 -20zM130 336l-31 -238l-65 -63q-10 -10 -16 0l-8 14q-6 6 -6 22l27 251q3 14 15 23l25 25q5 5 12 5q4 0 10 -5zM379 36q13 -10 -2 -22l-12 -12q-6 -6 -19 -6h-294q-13 0 -18 7
q-4 11 5 21l63 64h225z" />
    <glyph glyph-name="V" unicode="V" 
d="M170 666l-28 -231l-43 -41q-5 -6 -9 -6q-7 0 -13 6l-25 26q-6 6 -6 17l31 248q5 15 9 20l13 12q6 4 9 4q7 0 11 -4zM130 336l-31 -238l-65 -63q-10 -10 -16 0l-8 14q-6 6 -6 22l27 251q3 14 15 23l25 25q5 5 12 5q4 0 10 -5zM401 670l-13 -107l-90 -130l13 112zM209 331
l-12 -104l-92 -133l13 103z" />
    <glyph glyph-name="W" unicode="W" 
d="M504 683l-29 -230q-4 -20 -12 -27l-23 -25q-4 -4 -10 -4q-4 0 -8 4l-43 42l29 232l62 61q9 7 15 -2l16 -23q9 -12 3 -28zM170 666l-28 -231l-43 -41q-5 -6 -9 -6q-7 0 -13 6l-25 26q-6 6 -6 17l31 248q5 15 9 20l13 12q6 4 9 4q7 0 11 -4zM463 340l-33 -266
q-3 -9 -11 -19l-14 -13q-4 -4 -9 -5q-5 1 -9 5l-50 49l30 237l52 53q8 10 15 0l22 -21q7 -10 7 -20zM130 336l-31 -238l-65 -63q-10 -10 -16 0l-8 14q-6 6 -6 22l27 251q3 14 15 23l25 25q5 5 12 5q4 0 10 -5zM209 331l-12 -104l-92 -133l13 103zM282 331l-12 -104l60 -133
l14 104z" />
    <glyph glyph-name="X" unicode="X" 
d="M401 670l-13 -107l-90 -130l13 112zM209 331l-12 -104l-92 -133l13 103zM282 331l-12 -104l60 -133l14 104zM177 670l-13 -107l58 -130l14 112z" />
    <glyph glyph-name="Y" unicode="Y" 
d="M249 94l28 237h-62l-29 -237h63zM401 670l-13 -107l-90 -130l13 112zM177 670l-13 -107l58 -130l14 112z" />
    <glyph glyph-name="Z" unicode="Z" 
d="M469 765q2 -12 -2 -18l-70 -70h-223l-49 48q-9 9 0 17l25 23q8 12 19 12h288q4 0 12 -12zM379 36q13 -10 -2 -22l-12 -12q-6 -6 -19 -6h-294q-13 0 -18 7q-4 11 5 21l63 64h225zM401 670l-13 -107l-90 -130l13 112zM209 331l-12 -104l-92 -133l13 103z" />
    <glyph glyph-name="bracketleft" unicode="[" 
d="M469 765q2 -12 -2 -18l-70 -70h-223l-49 48q-9 9 0 17l25 23q8 12 19 12h288q4 0 12 -12zM170 666l-28 -231l-43 -41q-5 -6 -9 -6q-7 0 -13 6l-25 26q-6 6 -6 17l31 248q5 15 9 20l13 12q6 4 9 4q7 0 11 -4zM130 336l-31 -238l-65 -63q-10 -10 -16 0l-8 14q-6 6 -6 22
l27 251q3 14 15 23l25 25q5 5 12 5q4 0 10 -5zM379 36q13 -10 -2 -22l-12 -12q-6 -6 -19 -6h-294q-13 0 -18 7q-4 11 5 21l63 64h225zM401 670l-13 -107l-90 -130l13 112zM282 331l-12 -104l60 -133l14 104z" />
    <glyph glyph-name="backslash" unicode="\" 
d="M282 331l-12 -104l60 -133l14 104zM177 670l-13 -107l58 -130l14 112z" />
    <glyph glyph-name="bracketright" unicode="]" 
d="M469 765q2 -12 -2 -18l-70 -70h-223l-49 48q-9 9 0 17l25 23q8 12 19 12h288q4 0 12 -12zM504 683l-29 -230q-4 -20 -12 -27l-23 -25q-4 -4 -10 -4q-4 0 -8 4l-43 42l29 232l62 61q9 7 15 -2l16 -23q9 -12 3 -28zM463 340l-33 -266q-3 -9 -11 -19l-14 -13q-4 -4 -9 -5
q-5 1 -9 5l-50 49l30 237l52 53q8 10 15 0l22 -21q7 -10 7 -20zM379 36q13 -10 -2 -22l-12 -12q-6 -6 -19 -6h-294q-13 0 -18 7q-4 11 5 21l63 64h225zM209 331l-12 -104l-92 -133l13 103zM177 670l-13 -107l58 -130l14 112z" />
    <glyph glyph-name="asciicircum" unicode="^" 
d="M469 765q2 -12 -2 -18l-70 -70h-223l-49 48q-9 9 0 17l25 23q8 12 19 12h288q4 0 12 -12zM504 683l-29 -230q-4 -20 -12 -27l-23 -25q-4 -4 -10 -4q-4 0 -8 4l-43 42l29 232l62 61q9 7 15 -2l16 -23q9 -12 3 -28zM170 666l-28 -231l-43 -41q-5 -6 -9 -6q-7 0 -13 6
l-25 26q-6 6 -6 17l31 248q5 15 9 20l13 12q6 4 9 4q7 0 11 -4z" />
    <glyph glyph-name="underscore" unicode="_" 
d="M379 36q13 -10 -2 -22l-12 -12q-6 -6 -19 -6h-294q-13 0 -18 7q-4 11 5 21l63 64h225z" />
    <glyph glyph-name="grave" unicode="`" 
d="M177 670l-13 -107l58 -130l14 112z" />
    <glyph glyph-name="a" unicode="a" 
d="M130 336l-31 -238l-65 -63q-10 -10 -16 0l-8 14q-6 6 -6 22l27 251q3 14 15 23l25 25q5 5 12 5q4 0 10 -5zM379 36q13 -10 -2 -22l-12 -12q-6 -6 -19 -6h-294q-13 0 -18 7q-4 11 5 21l63 64h225zM249 94l28 237h-62l-29 -237h63zM251 338l11 91h-104l-48 -42
q-9 -10 -2 -17l34 -32h109z" />
    <glyph glyph-name="b" unicode="b" 
d="M170 666l-28 -231l-43 -41q-5 -6 -9 -6q-7 0 -13 6l-25 26q-6 6 -6 17l31 248q5 15 9 20l13 12q6 4 9 4q7 0 11 -4zM463 340l-33 -266q-3 -9 -11 -19l-14 -13q-4 -4 -9 -5q-5 1 -9 5l-50 49l30 237l52 53q8 10 15 0l22 -21q7 -10 7 -20zM130 336l-31 -238l-65 -63
q-10 -10 -16 0l-8 14q-6 6 -6 22l27 251q3 14 15 23l25 25q5 5 12 5q4 0 10 -5zM379 36q13 -10 -2 -22l-12 -12q-6 -6 -19 -6h-294q-13 0 -18 7q-4 11 5 21l63 64h225zM361 338h-219l-34 32q-7 7 2 17l48 42h216l31 -28q12 -9 -1 -20z" />
    <glyph glyph-name="c" unicode="c" 
d="M130 336l-31 -238l-65 -63q-10 -10 -16 0l-8 14q-6 6 -6 22l27 251q3 14 15 23l25 25q5 5 12 5q4 0 10 -5zM379 36q13 -10 -2 -22l-12 -12q-6 -6 -19 -6h-294q-13 0 -18 7q-4 11 5 21l63 64h225zM361 338h-219l-34 32q-7 7 2 17l48 42h216l31 -28q12 -9 -1 -20z" />
    <glyph glyph-name="d" unicode="d" 
d="M504 683l-29 -230q-4 -20 -12 -27l-23 -25q-4 -4 -10 -4q-4 0 -8 4l-43 42l29 232l62 61q9 7 15 -2l16 -23q9 -12 3 -28zM463 340l-33 -266q-3 -9 -11 -19l-14 -13q-4 -4 -9 -5q-5 1 -9 5l-50 49l30 237l52 53q8 10 15 0l22 -21q7 -10 7 -20zM130 336l-31 -238l-65 -63
q-10 -10 -16 0l-8 14q-6 6 -6 22l27 251q3 14 15 23l25 25q5 5 12 5q4 0 10 -5zM379 36q13 -10 -2 -22l-12 -12q-6 -6 -19 -6h-294q-13 0 -18 7q-4 11 5 21l63 64h225zM361 338h-219l-34 32q-7 7 2 17l48 42h216l31 -28q12 -9 -1 -20z" />
    <glyph glyph-name="e" unicode="e" 
d="M130 336l-31 -238l-65 -63q-10 -10 -16 0l-8 14q-6 6 -6 22l27 251q3 14 15 23l25 25q5 5 12 5q4 0 10 -5zM379 36q13 -10 -2 -22l-12 -12q-6 -6 -19 -6h-294q-13 0 -18 7q-4 11 5 21l63 64h225zM209 331l-12 -104l-92 -133l13 103zM251 338l11 91h-104l-48 -42
q-9 -10 -2 -17l34 -32h109z" />
    <glyph glyph-name="f" unicode="f" 
d="M249 94h-63l29 237h62zM401 670l-13 -107l-90 -130l13 112zM361 338h-219l-34 32q-7 7 2 17l48 42h216l31 -28q12 -9 -1 -20z" />
    <glyph glyph-name="g" unicode="g" 
d="M504 683l-29 -230q-4 -20 -12 -27l-23 -25q-4 -4 -10 -4q-4 0 -8 4l-43 42l29 232l62 61q9 7 15 -2l16 -23q9 -12 3 -28zM463 340l-33 -266q-3 -9 -11 -19l-14 -13q-4 -4 -9 -5q-5 1 -9 5l-50 49l30 237l52 53q8 10 15 0l22 -21q7 -10 7 -20zM379 36q13 -10 -2 -22
l-12 -12q-6 -6 -19 -6h-294q-13 0 -18 7q-4 11 5 21l63 64h225zM401 670l-13 -107l-90 -130l13 112zM282 331l-12 -104l60 -133l14 104z" />
    <glyph glyph-name="h" unicode="h" 
d="M170 666l-28 -231l-43 -41q-5 -6 -9 -6q-7 0 -13 6l-25 26q-6 6 -6 17l31 248q5 15 9 20l13 12q6 4 9 4q7 0 11 -4zM463 340l-33 -266q-3 -9 -11 -19l-14 -13q-4 -4 -9 -5q-5 1 -9 5l-50 49l30 237l52 53q8 10 15 0l22 -21q7 -10 7 -20zM130 336l-31 -238l-65 -63
q-10 -10 -16 0l-8 14q-6 6 -6 22l27 251q3 14 15 23l25 25q5 5 12 5q4 0 10 -5zM361 338h-219l-34 32q-7 7 2 17l48 42h216l31 -28q12 -9 -1 -20z" />
    <glyph glyph-name="i" unicode="i" 
d="M469 765q2 -12 -2 -18l-70 -70h-223l-49 48q-9 9 0 17l25 23q8 12 19 12h288q4 0 12 -12zM379 36q13 -10 -2 -22l-12 -12q-6 -6 -19 -6h-294q-13 0 -18 7q-4 11 5 21l63 64h225zM249 94l28 237h-62l-29 -237h63zM251 338l11 91h-104l-48 -42q-9 -10 -2 -17l34 -32h109z
" />
    <glyph glyph-name="j" unicode="j" 
d="M469 765q2 -12 -2 -18l-70 -70h-223l-49 48q-9 9 0 17l25 23q8 12 19 12h288q4 0 12 -12zM463 340l-33 -266q-3 -9 -11 -19l-14 -13q-4 -4 -9 -5q-5 1 -9 5l-50 49l30 237l52 53q8 10 15 0l22 -21q7 -10 7 -20zM379 36q13 -10 -2 -22l-12 -12q-6 -6 -19 -6h-294
q-13 0 -18 7q-4 11 5 21l63 64h225z" />
    <glyph glyph-name="k" unicode="k" 
d="M170 666l-28 -231l-43 -41q-5 -6 -9 -6q-7 0 -13 6l-25 26q-6 6 -6 17l31 248q5 15 9 20l13 12q6 4 9 4q7 0 11 -4zM130 336l-31 -238l-65 -63q-10 -10 -16 0l-8 14q-6 6 -6 22l27 251q3 14 15 23l25 25q5 5 12 5q4 0 10 -5zM282 331l62 -133l-14 -104l-60 133zM361 338
h-219l-34 32q-7 7 2 17l48 42h216l31 -28q12 -9 -1 -20z" />
    <glyph glyph-name="l" unicode="l" 
d="M293 433l28 237h-64l-27 -237h63zM282 331l-12 -104l60 -133l14 104z" />
    <glyph glyph-name="m" unicode="m" 
d="M463 340l-33 -266q-3 -9 -11 -19l-14 -13q-4 -4 -9 -5q-5 1 -9 5l-50 49l30 237l52 53q8 10 15 0l22 -21q7 -10 7 -20zM130 336l-31 -238l-65 -63q-10 -10 -16 0l-8 14q-6 6 -6 22l27 251q3 14 15 23l25 25q5 5 12 5q4 0 10 -5zM249 94h-63l29 237h62zM361 338h-219
l-34 32q-7 7 2 17l48 42h216l31 -28q12 -9 -1 -20z" />
    <glyph glyph-name="n" unicode="n" 
d="M463 340l-33 -266q-3 -9 -11 -19l-14 -13q-4 -4 -9 -5q-5 1 -9 5l-50 49l30 237l52 53q8 10 15 0l22 -21q7 -10 7 -20zM130 336l-31 -238l-65 -63q-10 -10 -16 0l-8 14q-6 6 -6 22l27 251q3 14 15 23l25 25q5 5 12 5q4 0 10 -5zM361 338h-219l-34 32q-7 7 2 17l48 42h216
l31 -28q12 -9 -1 -20z" />
    <glyph glyph-name="o" unicode="o" 
d="M463 340l-33 -266q-3 -9 -11 -19l-14 -13q-4 -4 -9 -5q-5 1 -9 5l-50 49l30 237l52 53q8 10 15 0l22 -21q7 -10 7 -20zM130 336l-31 -238l-65 -63q-10 -10 -16 0l-8 14q-6 6 -6 22l27 251q3 14 15 23l25 25q5 5 12 5q4 0 10 -5zM379 36q13 -10 -2 -22l-12 -12
q-6 -6 -19 -6h-294q-13 0 -18 7q-4 11 5 21l63 64h225zM361 338h-219l-34 32q-7 7 2 17l48 42h216l31 -28q12 -9 -1 -20z" />
    <glyph glyph-name="p" unicode="p" 
d="M130 336l-31 -238l-65 -63q-10 -10 -16 0l-8 14q-6 6 -6 22l27 251q3 14 15 23l25 25q5 5 12 5q4 0 10 -5zM209 331l-12 -104l-92 -133l13 103zM251 338l11 91h-104l-48 -42q-9 -10 -2 -17l34 -32h109z" />
    <glyph glyph-name="q" unicode="q" 
d="M463 340l-33 -266q-3 -9 -11 -19l-14 -13q-4 -4 -9 -5q-5 1 -9 5l-50 49l30 237l52 53q8 10 15 0l22 -21q7 -10 7 -20zM282 331l-12 -104l60 -133l14 104zM361 338h-110l11 91h112l31 -28q12 -9 -1 -20z" />
    <glyph glyph-name="r" unicode="r" 
d="M130 336l-31 -238l-65 -63q-10 -10 -16 0l-8 14q-6 6 -6 22l27 251q3 14 15 23l25 25q5 5 12 5q4 0 10 -5zM361 338h-219l-34 32q-7 7 2 17l48 42h216l31 -28q12 -9 -1 -20z" />
    <glyph glyph-name="s" unicode="s" 
d="M379 36q13 -10 -2 -22l-12 -12q-6 -6 -19 -6h-294q-13 0 -18 7q-4 11 5 21l63 64h225zM282 331l-12 -104l60 -133l14 104zM361 338h-110l11 91h112l31 -28q12 -9 -1 -20z" />
    <glyph glyph-name="t" unicode="t" 
d="M170 666l-28 -231l-43 -41q-5 -6 -9 -6q-7 0 -13 6l-25 26q-6 6 -6 17l31 248q5 15 9 20l13 12q6 4 9 4q7 0 11 -4zM130 336l-31 -238l-65 -63q-10 -10 -16 0l-8 14q-6 6 -6 22l27 251q3 14 15 23l25 25q5 5 12 5q4 0 10 -5zM379 36q13 -10 -2 -22l-12 -12q-6 -6 -19 -6
h-294q-13 0 -18 7q-4 11 5 21l63 64h225zM361 338h-219l-34 32q-7 7 2 17l48 42h216l31 -28q12 -9 -1 -20z" />
    <glyph glyph-name="u" unicode="u" 
d="M463 340l-33 -266q-3 -9 -11 -19l-14 -13q-4 -4 -9 -5q-5 1 -9 5l-50 49l30 237l52 53q8 10 15 0l22 -21q7 -10 7 -20zM130 336l-31 -238l-65 -63q-10 -10 -16 0l-8 14q-6 6 -6 22l27 251q3 14 15 23l25 25q5 5 12 5q4 0 10 -5zM379 36q13 -10 -2 -22l-12 -12
q-6 -6 -19 -6h-294q-13 0 -18 7q-4 11 5 21l63 64h225z" />
    <glyph glyph-name="v" unicode="v" 
d="M130 336l-31 -238l-65 -63q-10 -10 -16 0l-8 14q-6 6 -6 22l27 251q3 14 15 23l25 25q5 5 12 5q4 0 10 -5zM209 331l-12 -104l-92 -133l13 103z" />
    <glyph glyph-name="w" unicode="w" 
d="M463 340l-33 -266q-3 -9 -11 -19l-14 -13q-4 -4 -9 -5q-5 1 -9 5l-50 49l30 237l52 53q8 10 15 0l22 -21q7 -10 7 -20zM130 336l-31 -238l-65 -63q-10 -10 -16 0l-8 14q-6 6 -6 22l27 251q3 14 15 23l25 25q5 5 12 5q4 0 10 -5zM209 331l-12 -104l-92 -133l13 103z
M282 331l-12 -104l60 -133l14 104z" />
    <glyph glyph-name="x" unicode="x" 
d="M209 331l-12 -104l-92 -133l13 103zM282 331l62 -133l-14 -104l-60 133zM361 338h-219l-34 32q-7 7 2 17l48 42h216l31 -28q12 -9 -1 -20z" />
    <glyph glyph-name="y" unicode="y" 
d="M463 340l-33 -266q-3 -9 -11 -19l-14 -13q-4 -4 -9 -5q-5 1 -9 5l-50 49l30 237l52 53q8 10 15 0l22 -21q7 -10 7 -20zM379 36q13 -10 -2 -22l-12 -12q-6 -6 -19 -6h-294q-13 0 -18 7q-4 11 5 21l63 64h225zM282 331l-12 -104l60 -133l14 104z" />
    <glyph glyph-name="z" unicode="z" 
d="M379 36q13 -10 -2 -22l-12 -12q-6 -6 -19 -6h-294q-13 0 -18 7q-4 11 5 21l63 64h225zM209 331l-12 -104l-92 -133l13 103zM361 338h-219l-34 32q-7 7 2 17l48 42h216l31 -28q12 -9 -1 -20z" />
    <glyph glyph-name="braceleft" unicode="{" 
d="M504 683l-29 -230q-4 -20 -12 -27l-23 -25q-4 -4 -10 -4q-4 0 -8 4l-43 42l29 232l62 61q9 7 15 -2l16 -23q9 -12 3 -28zM463 340l-33 -266q-3 -9 -11 -19l-14 -13q-4 -4 -9 -5q-5 1 -9 5l-50 49l30 237l52 53q8 10 15 0l22 -21q7 -10 7 -20zM401 670l-13 -107l-90 -130
l13 112zM282 331l-12 -104l60 -133l14 104zM361 338h-110l11 91h112l31 -28q12 -9 -1 -20z" />
    <glyph glyph-name="bar" unicode="|" 
d="M293 433l28 237h-64l-27 -237h63zM249 94l28 237h-62l-29 -237h63z" />
    <glyph glyph-name="braceright" unicode="}" 
d="M170 666l-28 -231l-43 -41q-5 -6 -9 -6q-7 0 -13 6l-25 26q-6 6 -6 17l31 248q5 15 9 20l13 12q6 4 9 4q7 0 11 -4zM130 336l-31 -238l-65 -63q-10 -10 -16 0l-8 14q-6 6 -6 22l27 251q3 14 15 23l25 25q5 5 12 5q4 0 10 -5zM209 331l-12 -104l-92 -133l13 103zM177 670
l-13 -107l58 -130l14 112zM251 338l11 91h-104l-48 -42q-9 -10 -2 -17l34 -32h109z" />
    <glyph glyph-name="asciitilde" unicode="~" 
d="M469 765q2 -12 -2 -18l-70 -70h-223l-49 48q-9 9 0 17l25 23q8 12 19 12h288q4 0 12 -12z" />
    <glyph glyph-name="uni00A0" unicode="&#xa0;" 
 />
    <glyph glyph-name="exclamdown" unicode="&#xa1;" 
 />
    <glyph glyph-name="cent" unicode="&#xa2;" 
 />
    <glyph glyph-name="sterling" unicode="&#xa3;" 
 />
    <glyph glyph-name="currency" unicode="&#xa4;" 
 />
    <glyph glyph-name="yen" unicode="&#xa5;" 
 />
    <glyph glyph-name="brokenbar" unicode="&#xa6;" 
 />
    <glyph glyph-name="section" unicode="&#xa7;" 
 />
    <glyph glyph-name="dieresis" unicode="&#xa8;" 
 />
    <glyph glyph-name="copyright" unicode="&#xa9;" 
 />
    <glyph glyph-name="ordfeminine" unicode="&#xaa;" 
 />
    <glyph glyph-name="guillemotleft" unicode="&#xab;" 
 />
    <glyph glyph-name="logicalnot" unicode="&#xac;" 
 />
    <glyph glyph-name="uni00AD" unicode="&#xad;" 
 />
    <glyph glyph-name="registered" unicode="&#xae;" 
 />
    <glyph glyph-name="macron" unicode="&#xaf;" 
 />
    <glyph glyph-name="degree" unicode="&#xb0;" 
 />
    <glyph glyph-name="plusminus" unicode="&#xb1;" 
 />
    <glyph glyph-name="twosuperior" unicode="&#xb2;" 
 />
    <glyph glyph-name="threesuperior" unicode="&#xb3;" 
 />
    <glyph glyph-name="acute" unicode="&#xb4;" 
 />
    <glyph glyph-name="mu" unicode="&#xb5;" 
 />
    <glyph glyph-name="paragraph" unicode="&#xb6;" 
 />
    <glyph glyph-name="periodcentered" unicode="&#xb7;" 
 />
    <glyph glyph-name="cedilla" unicode="&#xb8;" 
 />
    <glyph glyph-name="onesuperior" unicode="&#xb9;" 
 />
    <glyph glyph-name="ordmasculine" unicode="&#xba;" 
 />
    <glyph glyph-name="guillemotright" unicode="&#xbb;" 
 />
    <glyph glyph-name="onequarter" unicode="&#xbc;" 
 />
    <glyph glyph-name="onehalf" unicode="&#xbd;" 
 />
    <glyph glyph-name="threequarters" unicode="&#xbe;" 
 />
    <glyph glyph-name="questiondown" unicode="&#xbf;" 
 />
    <glyph glyph-name="Agrave" unicode="&#xc0;" 
 />
    <glyph glyph-name="Aacute" unicode="&#xc1;" 
 />
    <glyph glyph-name="Acircumflex" unicode="&#xc2;" 
 />
    <glyph glyph-name="Atilde" unicode="&#xc3;" 
 />
    <glyph glyph-name="Adieresis" unicode="&#xc4;" 
 />
    <glyph glyph-name="Aring" unicode="&#xc5;" 
 />
    <glyph glyph-name="AE" unicode="&#xc6;" 
 />
    <glyph glyph-name="Ccedilla" unicode="&#xc7;" 
 />
    <glyph glyph-name="Egrave" unicode="&#xc8;" 
 />
    <glyph glyph-name="Eacute" unicode="&#xc9;" 
 />
    <glyph glyph-name="Ecircumflex" unicode="&#xca;" 
 />
    <glyph glyph-name="Edieresis" unicode="&#xcb;" 
 />
    <glyph glyph-name="Igrave" unicode="&#xcc;" 
 />
    <glyph glyph-name="Iacute" unicode="&#xcd;" 
 />
    <glyph glyph-name="Icircumflex" unicode="&#xce;" 
 />
    <glyph glyph-name="Idieresis" unicode="&#xcf;" 
 />
    <glyph glyph-name="Eth" unicode="&#xd0;" 
 />
    <glyph glyph-name="Ntilde" unicode="&#xd1;" 
 />
    <glyph glyph-name="Ograve" unicode="&#xd2;" 
 />
    <glyph glyph-name="Oacute" unicode="&#xd3;" 
 />
    <glyph glyph-name="Ocircumflex" unicode="&#xd4;" 
 />
    <glyph glyph-name="Otilde" unicode="&#xd5;" 
 />
    <glyph glyph-name="Odieresis" unicode="&#xd6;" 
 />
    <glyph glyph-name="multiply" unicode="&#xd7;" 
 />
    <glyph glyph-name="Oslash" unicode="&#xd8;" 
 />
    <glyph glyph-name="Ugrave" unicode="&#xd9;" 
 />
    <glyph glyph-name="Uacute" unicode="&#xda;" 
 />
    <glyph glyph-name="Ucircumflex" unicode="&#xdb;" 
 />
    <glyph glyph-name="Udieresis" unicode="&#xdc;" 
 />
    <glyph glyph-name="Yacute" unicode="&#xdd;" 
 />
    <glyph glyph-name="Thorn" unicode="&#xde;" 
 />
    <glyph glyph-name="germandbls" unicode="&#xdf;" 
 />
    <glyph glyph-name="agrave" unicode="&#xe0;" 
 />
    <glyph glyph-name="aacute" unicode="&#xe1;" 
 />
    <glyph glyph-name="acircumflex" unicode="&#xe2;" 
 />
    <glyph glyph-name="atilde" unicode="&#xe3;" 
 />
    <glyph glyph-name="adieresis" unicode="&#xe4;" 
 />
    <glyph glyph-name="aring" unicode="&#xe5;" 
 />
    <glyph glyph-name="ae" unicode="&#xe6;" 
 />
    <glyph glyph-name="ccedilla" unicode="&#xe7;" 
 />
    <glyph glyph-name="egrave" unicode="&#xe8;" 
 />
    <glyph glyph-name="eacute" unicode="&#xe9;" 
 />
    <glyph glyph-name="ecircumflex" unicode="&#xea;" 
 />
    <glyph glyph-name="edieresis" unicode="&#xeb;" 
 />
    <glyph glyph-name="igrave" unicode="&#xec;" 
 />
    <glyph glyph-name="iacute" unicode="&#xed;" 
 />
    <glyph glyph-name="icircumflex" unicode="&#xee;" 
 />
    <glyph glyph-name="idieresis" unicode="&#xef;" 
 />
    <glyph glyph-name="eth" unicode="&#xf0;" 
 />
    <glyph glyph-name="ntilde" unicode="&#xf1;" 
 />
    <glyph glyph-name="ograve" unicode="&#xf2;" 
 />
    <glyph glyph-name="oacute" unicode="&#xf3;" 
 />
    <glyph glyph-name="ocircumflex" unicode="&#xf4;" 
 />
    <glyph glyph-name="otilde" unicode="&#xf5;" 
 />
    <glyph glyph-name="odieresis" unicode="&#xf6;" 
 />
    <glyph glyph-name="divide" unicode="&#xf7;" 
 />
    <glyph glyph-name="oslash" unicode="&#xf8;" 
 />
    <glyph glyph-name="ugrave" unicode="&#xf9;" 
 />
    <glyph glyph-name="uacute" unicode="&#xfa;" 
 />
    <glyph glyph-name="ucircumflex" unicode="&#xfb;" 
 />
    <glyph glyph-name="udieresis" unicode="&#xfc;" 
 />
    <glyph glyph-name="yacute" unicode="&#xfd;" 
 />
    <glyph glyph-name="thorn" unicode="&#xfe;" 
 />
    <glyph glyph-name="ydieresis" unicode="&#xff;" 
 />
    <glyph glyph-name="dotlessi" unicode="&#x131;" 
 />
    <glyph glyph-name="Lslash" unicode="&#x141;" 
 />
    <glyph glyph-name="lslash" unicode="&#x142;" 
 />
    <glyph glyph-name="OE" unicode="&#x152;" 
 />
    <glyph glyph-name="oe" unicode="&#x153;" 
 />
    <glyph glyph-name="Scaron" unicode="&#x160;" 
 />
    <glyph glyph-name="scaron" unicode="&#x161;" 
 />
    <glyph glyph-name="Ydieresis" unicode="&#x178;" 
 />
    <glyph glyph-name="Zcaron" unicode="&#x17d;" 
 />
    <glyph glyph-name="zcaron" unicode="&#x17e;" 
 />
    <glyph glyph-name="florin" unicode="&#x192;" 
 />
    <glyph glyph-name="circumflex" unicode="&#x2c6;" 
 />
    <glyph glyph-name="caron" unicode="&#x2c7;" 
 />
    <glyph glyph-name="uni02C9" unicode="&#x2c9;" 
 />
    <glyph glyph-name="breve" unicode="&#x2d8;" 
 />
    <glyph glyph-name="dotaccent" unicode="&#x2d9;" 
 />
    <glyph glyph-name="ring" unicode="&#x2da;" 
 />
    <glyph glyph-name="ogonek" unicode="&#x2db;" 
 />
    <glyph glyph-name="tilde" unicode="&#x2dc;" 
 />
    <glyph glyph-name="hungarumlaut" unicode="&#x2dd;" 
 />
    <glyph glyph-name="uni03A9" unicode="&#x3a9;" 
 />
    <glyph glyph-name="uni03BC" unicode="&#x3bc;" 
 />
    <glyph glyph-name="pi" unicode="&#x3c0;" 
 />
    <glyph glyph-name="endash" unicode="&#x2013;" 
 />
    <glyph glyph-name="emdash" unicode="&#x2014;" 
 />
    <glyph glyph-name="quoteleft" unicode="&#x2018;" 
 />
    <glyph glyph-name="quoteright" unicode="&#x2019;" 
d="M469 765q2 -12 -2 -18l-70 -70h-223l-49 48q-9 9 0 17l25 23q8 12 19 12h288q4 0 12 -12zM504 683l-29 -230q-4 -20 -12 -27l-23 -25q-4 -4 -10 -4q-4 0 -8 4l-43 42l29 232l62 61q9 7 15 -2l16 -23q9 -12 3 -28zM170 666l-28 -231l-43 -41q-5 -6 -9 -6q-7 0 -13 6
l-25 26q-6 6 -6 17l31 248q5 15 9 20l13 12q6 4 9 4q7 0 11 -4zM463 340l-33 -266q-3 -9 -11 -19l-14 -13q-4 -4 -9 -5q-5 1 -9 5l-50 49l30 237l52 53q8 10 15 0l22 -21q7 -10 7 -20zM130 336l-31 -238l-65 -63q-10 -10 -16 0l-8 14q-6 6 -6 22l27 251q3 14 15 23l25 25
q5 5 12 5q4 0 10 -5zM379 36q13 -10 -2 -22l-12 -12q-6 -6 -19 -6h-294q-13 0 -18 7q-4 11 5 21l63 64h225zM293 433l28 237h-64l-27 -237h63zM249 94l28 237h-62l-29 -237h63zM401 670l-13 -107l-90 -130l13 112zM209 331l-12 -104l-92 -133l13 103zM282 331l-12 -104
l60 -133l14 104zM177 670l-13 -107l58 -130l14 112zM251 338l11 91h-104l-48 -42q-9 -10 -2 -17l34 -32h109zM361 338h-110l11 91h112l31 -28q12 -9 -1 -20z" />
    <glyph glyph-name="quotesinglbase" unicode="&#x201a;" 
 />
    <glyph glyph-name="quotedblleft" unicode="&#x201c;" 
 />
    <glyph glyph-name="quotedblright" unicode="&#x201d;" 
 />
    <glyph glyph-name="quotedblbase" unicode="&#x201e;" 
 />
    <glyph glyph-name="dagger" unicode="&#x2020;" 
 />
    <glyph glyph-name="daggerdbl" unicode="&#x2021;" 
 />
    <glyph glyph-name="bullet" unicode="&#x2022;" 
 />
    <glyph glyph-name="ellipsis" unicode="&#x2026;" 
 />
    <glyph glyph-name="perthousand" unicode="&#x2030;" 
 />
    <glyph glyph-name="guilsinglleft" unicode="&#x2039;" 
 />
    <glyph glyph-name="guilsinglright" unicode="&#x203a;" 
 />
    <glyph glyph-name="fraction" unicode="&#x2044;" 
 />
    <glyph glyph-name="Euro" unicode="&#x20ac;" 
 />
    <glyph glyph-name="afii61289" unicode="&#x2113;" 
 />
    <glyph glyph-name="trademark" unicode="&#x2122;" 
 />
    <glyph glyph-name="Omega" unicode="&#x2126;" 
 />
    <glyph glyph-name="estimated" unicode="&#x212e;" 
 />
    <glyph glyph-name="partialdiff" unicode="&#x2202;" 
 />
    <glyph glyph-name="Delta" unicode="&#x2206;" 
 />
    <glyph glyph-name="product" unicode="&#x220f;" 
 />
    <glyph glyph-name="summation" unicode="&#x2211;" 
 />
    <glyph glyph-name="minus" unicode="&#x2212;" 
 />
    <glyph glyph-name="uni2215" unicode="&#x2215;" 
 />
    <glyph glyph-name="uni2219" unicode="&#x2219;" 
 />
    <glyph glyph-name="radical" unicode="&#x221a;" 
 />
    <glyph glyph-name="infinity" unicode="&#x221e;" 
 />
    <glyph glyph-name="integral" unicode="&#x222b;" 
 />
    <glyph glyph-name="approxequal" unicode="&#x2248;" 
 />
    <glyph glyph-name="notequal" unicode="&#x2260;" 
 />
    <glyph glyph-name="lessequal" unicode="&#x2264;" 
 />
    <glyph glyph-name="greaterequal" unicode="&#x2265;" 
 />
    <glyph glyph-name="lozenge" unicode="&#x25ca;" 
 />
    <glyph glyph-name="fi" unicode="&#xfb01;" 
 />
    <glyph glyph-name="fl" unicode="&#xfb02;" 
 />
  </font>
</defs>
</svg>
